<svg width="580" height="40" viewBox="0 0 580 40" fill="none" xmlns="http://www.w3.org/2000/svg">
<rect width="580" height="40" rx="10" fill="#1A1F16"/>
<path d="M182 25.625C182 26.3212 182.277 26.9889 182.769 27.4812C183.261 27.9734 183.929 28.25 184.625 28.25H200.375C201.071 28.25 201.739 27.9734 202.231 27.4812C202.723 26.9889 203 26.3212 203 25.625V18.4062H182V25.625ZM185.094 22.0625C185.094 21.6895 185.242 21.3319 185.506 21.0681C185.769 20.8044 186.127 20.6562 186.5 20.6562H188.75C189.123 20.6562 189.481 20.8044 189.744 21.0681C190.008 21.3319 190.156 21.6895 190.156 22.0625V23C190.156 23.373 190.008 23.7306 189.744 23.9944C189.481 24.2581 189.123 24.4062 188.75 24.4062H186.5C186.127 24.4062 185.769 24.2581 185.506 23.9944C185.242 23.7306 185.094 23.373 185.094 23V22.0625ZM200.375 11.75H184.625C183.929 11.75 183.261 12.0266 182.769 12.5188C182.277 13.0111 182 13.6788 182 14.375V15.5938H203V14.375C203 13.6788 202.723 13.0111 202.231 12.5188C201.739 12.0266 201.071 11.75 200.375 11.75Z" fill="white"/>
<path d="M221.67 23.42H215.73V21.47H221.67V23.42ZM218.4 15.13H219L214.81 27H212.61L217.61 13H219.79L224.79 27H222.59L218.4 15.13ZM229.827 27.2C228.921 27.2 228.128 26.97 227.448 26.51C226.768 26.0433 226.238 25.4233 225.858 24.65C225.484 23.8767 225.298 23.02 225.298 22.08C225.298 21.1667 225.474 20.32 225.828 19.54C226.188 18.7533 226.704 18.1233 227.378 17.65C228.058 17.17 228.874 16.93 229.827 16.93C230.514 16.93 231.141 17.0633 231.708 17.33C232.274 17.5967 232.751 18 233.138 18.54L232.658 18.91V12H234.748V27H232.838L232.588 25.08L233.158 25.49C232.798 26.0433 232.334 26.4667 231.768 26.76C231.201 27.0533 230.554 27.2 229.827 27.2ZM230.168 25.41C230.661 25.41 231.108 25.2867 231.508 25.04C231.914 24.7933 232.234 24.4233 232.468 23.93C232.708 23.4367 232.828 22.82 232.828 22.08C232.828 21.3733 232.708 20.77 232.468 20.27C232.234 19.7633 231.914 19.38 231.508 19.12C231.108 18.8533 230.661 18.72 230.168 18.72C229.594 18.72 229.101 18.8667 228.688 19.16C228.281 19.4467 227.968 19.8433 227.748 20.35C227.534 20.85 227.428 21.4267 227.428 22.08C227.428 22.7067 227.534 23.2733 227.748 23.78C227.968 24.28 228.281 24.6767 228.688 24.97C229.101 25.2633 229.594 25.41 230.168 25.41ZM241.058 27.2C240.151 27.2 239.358 26.97 238.678 26.51C237.998 26.0433 237.468 25.4233 237.088 24.65C236.715 23.8767 236.528 23.02 236.528 22.08C236.528 21.1667 236.705 20.32 237.058 19.54C237.418 18.7533 237.935 18.1233 238.608 17.65C239.288 17.17 240.105 16.93 241.058 16.93C241.745 16.93 242.371 17.0633 242.938 17.33C243.505 17.5967 243.981 18 244.368 18.54L243.888 18.91V12H245.978V27H244.068L243.818 25.08L244.388 25.49C244.028 26.0433 243.565 26.4667 242.998 26.76C242.431 27.0533 241.785 27.2 241.058 27.2ZM241.398 25.41C241.891 25.41 242.338 25.2867 242.738 25.04C243.145 24.7933 243.465 24.4233 243.698 23.93C243.938 23.4367 244.058 22.82 244.058 22.08C244.058 21.3733 243.938 20.77 243.698 20.27C243.465 19.7633 243.145 19.38 242.738 19.12C242.338 18.8533 241.891 18.72 241.398 18.72C240.825 18.72 240.331 18.8667 239.918 19.16C239.511 19.4467 239.198 19.8433 238.978 20.35C238.765 20.85 238.658 21.4267 238.658 22.08C238.658 22.7067 238.765 23.2733 238.978 23.78C239.198 24.28 239.511 24.6767 239.918 24.97C240.331 25.2633 240.825 25.41 241.398 25.41ZM253.211 27V13H257.991C258.984 13 259.844 13.1567 260.571 13.47C261.297 13.7767 261.854 14.2633 262.241 14.93C262.634 15.5967 262.831 16.4633 262.831 17.53C262.831 18.5967 262.634 19.47 262.241 20.15C261.854 20.8233 261.297 21.32 260.571 21.64C259.851 21.96 258.997 22.12 258.011 22.12H255.451V27H253.211ZM255.451 20.23H257.721C258.681 20.23 259.401 20.0133 259.881 19.58C260.361 19.1467 260.601 18.4733 260.601 17.56C260.601 16.64 260.367 15.9667 259.901 15.54C259.434 15.1067 258.701 14.89 257.701 14.89H255.451V20.23ZM266.428 27.2C265.854 27.2 265.344 27.08 264.898 26.84C264.451 26.5933 264.098 26.2533 263.838 25.82C263.584 25.3867 263.458 24.8767 263.458 24.29C263.458 23.73 263.584 23.2533 263.838 22.86C264.091 22.46 264.428 22.1267 264.848 21.86C265.268 21.5933 265.728 21.3833 266.228 21.23C266.734 21.07 267.248 20.9533 267.768 20.88C268.288 20.8067 268.771 20.7667 269.218 20.76C269.211 19.98 269.044 19.4533 268.718 19.18C268.391 18.9 267.894 18.76 267.228 18.76C266.828 18.76 266.418 18.82 265.998 18.94C265.578 19.0533 265.104 19.27 264.578 19.59L264.338 17.89C264.818 17.5967 265.354 17.3633 265.948 17.19C266.541 17.0167 267.154 16.93 267.788 16.93C268.581 16.93 269.238 17.07 269.758 17.35C270.278 17.63 270.668 18.0933 270.928 18.74C271.188 19.3867 271.318 20.2533 271.318 21.34V23.64C271.318 24.12 271.338 24.4967 271.378 24.77C271.424 25.0367 271.521 25.2267 271.668 25.34C271.814 25.4533 272.038 25.51 272.338 25.51H272.578L272.318 27.2H271.858C271.364 27.2 270.964 27.1467 270.658 27.04C270.358 26.9333 270.114 26.7833 269.928 26.59C269.741 26.39 269.584 26.1533 269.458 25.88C269.104 26.28 268.664 26.6 268.138 26.84C267.618 27.08 267.048 27.2 266.428 27.2ZM267.068 25.56C267.441 25.56 267.824 25.4667 268.218 25.28C268.618 25.0933 268.954 24.8333 269.228 24.5V22.18C268.481 22.2133 267.838 22.3033 267.298 22.45C266.764 22.59 266.351 22.8033 266.058 23.09C265.771 23.3767 265.628 23.7433 265.628 24.19C265.628 24.67 265.754 25.02 266.008 25.24C266.261 25.4533 266.614 25.56 267.068 25.56ZM274.323 31.84L276.563 26.47L272.453 17.12H274.773L277.623 24.04L280.313 17.12H282.633L276.523 31.84H274.323ZM283.924 27V17.12H285.634L285.914 18.82L285.364 18.45C285.878 17.9433 286.414 17.5633 286.974 17.31C287.534 17.0567 288.148 16.93 288.814 16.93C289.321 16.93 289.788 17.01 290.214 17.17C290.641 17.3233 291.018 17.5733 291.344 17.92C291.678 18.2667 291.944 18.7267 292.144 19.3L291.604 19.11C291.911 18.43 292.368 17.8967 292.974 17.51C293.588 17.1233 294.354 16.93 295.274 16.93C296.134 16.93 296.848 17.1 297.414 17.44C297.988 17.7733 298.414 18.2667 298.694 18.92C298.974 19.5667 299.114 20.3633 299.114 21.31V27H297.024V21.4C297.024 20.4733 296.858 19.7967 296.524 19.37C296.198 18.9367 295.658 18.72 294.904 18.72C294.431 18.72 294.041 18.7967 293.734 18.95C293.428 19.0967 293.188 19.3 293.014 19.56C292.848 19.8133 292.731 20.0967 292.664 20.41C292.598 20.7233 292.564 21.0433 292.564 21.37V27H290.474V21.61C290.474 20.8833 290.391 20.31 290.224 19.89C290.058 19.47 289.814 19.17 289.494 18.99C289.174 18.81 288.788 18.72 288.334 18.72C287.708 18.72 287.164 18.86 286.704 19.14C286.251 19.42 285.914 19.84 285.694 20.4L286.014 19.27V27H283.924ZM306.145 27.2C304.965 27.2 303.979 26.9633 303.185 26.49C302.392 26.01 301.792 25.3767 301.385 24.59C300.985 23.7967 300.785 22.93 300.785 21.99C300.785 21.0767 300.972 20.2367 301.345 19.47C301.725 18.7033 302.275 18.09 302.995 17.63C303.722 17.1633 304.599 16.93 305.625 16.93C306.499 16.93 307.255 17.1067 307.895 17.46C308.535 17.8133 309.025 18.3067 309.365 18.94C309.712 19.5733 309.885 20.3133 309.885 21.16C309.885 21.3333 309.875 21.5133 309.855 21.7C309.842 21.8867 309.815 22.0833 309.775 22.29H302.945C303.032 23.07 303.239 23.69 303.565 24.15C303.892 24.6033 304.299 24.9267 304.785 25.12C305.272 25.3133 305.799 25.41 306.365 25.41C306.872 25.41 307.372 25.3533 307.865 25.24C308.359 25.12 308.822 24.95 309.255 24.73L309.445 26.44C309.065 26.62 308.599 26.7933 308.045 26.96C307.492 27.12 306.859 27.2 306.145 27.2ZM303.065 20.86H307.745C307.745 20.4667 307.672 20.11 307.525 19.79C307.379 19.4633 307.145 19.2033 306.825 19.01C306.512 18.8167 306.105 18.72 305.605 18.72C304.872 18.72 304.302 18.9133 303.895 19.3C303.495 19.6867 303.219 20.2067 303.065 20.86ZM311.659 27V17.12H313.449L313.699 18.99L313.059 18.49C313.599 17.93 314.162 17.53 314.749 17.29C315.335 17.05 315.949 16.93 316.589 16.93C317.955 16.93 318.949 17.35 319.569 18.19C320.189 19.0233 320.499 20.1333 320.499 21.52V27H318.409V21.61C318.409 20.6167 318.232 19.8867 317.879 19.42C317.525 18.9533 316.929 18.72 316.089 18.72C315.469 18.72 314.922 18.8633 314.449 19.15C313.982 19.43 313.642 19.85 313.429 20.41L313.749 19.26V27H311.659ZM325.965 27.2C325.345 27.2 324.842 27.08 324.455 26.84C324.075 26.6 323.795 26.2933 323.615 25.92C323.442 25.5467 323.355 25.1533 323.355 24.74V18.79H321.785L321.975 17.12H323.355V14.79L325.445 14.57V17.12H327.865V18.79H325.445V23.68C325.445 24.2533 325.479 24.67 325.545 24.93C325.612 25.1833 325.775 25.3433 326.035 25.41C326.295 25.4767 326.709 25.51 327.275 25.51H327.835L327.655 27.2H325.965ZM333.664 27L335.564 13H337.394L340.954 19.7L344.494 13H346.334L348.224 27H345.944L344.564 15.96L345.144 16.07L340.974 23.84L336.744 16.08L337.324 15.97L335.944 27H333.664ZM354.876 27.2C353.696 27.2 352.709 26.9633 351.916 26.49C351.122 26.01 350.522 25.3767 350.116 24.59C349.716 23.7967 349.516 22.93 349.516 21.99C349.516 21.0767 349.702 20.2367 350.076 19.47C350.456 18.7033 351.006 18.09 351.726 17.63C352.452 17.1633 353.329 16.93 354.356 16.93C355.229 16.93 355.986 17.1067 356.626 17.46C357.266 17.8133 357.756 18.3067 358.096 18.94C358.442 19.5733 358.616 20.3133 358.616 21.16C358.616 21.3333 358.606 21.5133 358.586 21.7C358.572 21.8867 358.546 22.0833 358.506 22.29H351.676C351.762 23.07 351.969 23.69 352.296 24.15C352.622 24.6033 353.029 24.9267 353.516 25.12C354.002 25.3133 354.529 25.41 355.096 25.41C355.602 25.41 356.102 25.3533 356.596 25.24C357.089 25.12 357.552 24.95 357.986 24.73L358.176 26.44C357.796 26.62 357.329 26.7933 356.776 26.96C356.222 27.12 355.589 27.2 354.876 27.2ZM351.796 20.86H356.476C356.476 20.4667 356.402 20.11 356.256 19.79C356.109 19.4633 355.876 19.2033 355.556 19.01C355.242 18.8167 354.836 18.72 354.336 18.72C353.602 18.72 353.032 18.9133 352.626 19.3C352.226 19.6867 351.949 20.2067 351.796 20.86ZM363.719 27.2C363.099 27.2 362.596 27.08 362.209 26.84C361.829 26.6 361.549 26.2933 361.369 25.92C361.196 25.5467 361.109 25.1533 361.109 24.74V18.79H359.539L359.729 17.12H361.109V14.79L363.199 14.57V17.12H365.619V18.79H363.199V23.68C363.199 24.2533 363.233 24.67 363.299 24.93C363.366 25.1833 363.529 25.3433 363.789 25.41C364.049 25.4767 364.463 25.51 365.029 25.51H365.589L365.409 27.2H363.719ZM367.166 27V12H369.266V18.71L368.666 18.5C369.106 18.0467 369.583 17.6733 370.096 17.38C370.616 17.08 371.259 16.93 372.026 16.93C372.886 16.93 373.596 17.1233 374.156 17.51C374.716 17.89 375.133 18.4233 375.406 19.11C375.679 19.7967 375.816 20.5933 375.816 21.5V27H373.726V21.7C373.726 20.68 373.549 19.93 373.196 19.45C372.843 18.9633 372.286 18.72 371.526 18.72C370.919 18.72 370.399 18.8733 369.966 19.18C369.539 19.4867 369.186 19.8967 368.906 20.41L369.266 19.21V27H367.166ZM382.494 27.2C381.447 27.2 380.551 26.97 379.804 26.51C379.064 26.0433 378.497 25.4233 378.104 24.65C377.717 23.87 377.524 23.01 377.524 22.07C377.524 21.1233 377.717 20.26 378.104 19.48C378.497 18.7 379.064 18.08 379.804 17.62C380.551 17.1533 381.447 16.92 382.494 16.92C383.547 16.92 384.444 17.1533 385.184 17.62C385.931 18.08 386.497 18.7 386.884 19.48C387.277 20.26 387.474 21.1233 387.474 22.07C387.474 23.01 387.277 23.87 386.884 24.65C386.497 25.4233 385.931 26.0433 385.184 26.51C384.444 26.97 383.547 27.2 382.494 27.2ZM382.494 25.41C383.414 25.41 384.117 25.11 384.604 24.51C385.097 23.91 385.344 23.0967 385.344 22.07C385.344 21.0367 385.097 20.2167 384.604 19.61C384.117 19.0033 383.414 18.7 382.494 18.7C381.587 18.7 380.887 19.0033 380.394 19.61C379.901 20.2167 379.654 21.0367 379.654 22.07C379.654 23.0967 379.901 23.91 380.394 24.51C380.887 25.11 381.587 25.41 382.494 25.41ZM393.226 27.2C392.319 27.2 391.526 26.97 390.846 26.51C390.166 26.0433 389.636 25.4233 389.256 24.65C388.883 23.8767 388.696 23.02 388.696 22.08C388.696 21.1667 388.873 20.32 389.226 19.54C389.586 18.7533 390.103 18.1233 390.776 17.65C391.456 17.17 392.273 16.93 393.226 16.93C393.913 16.93 394.539 17.0633 395.106 17.33C395.673 17.5967 396.149 18 396.536 18.54L396.056 18.91V12H398.146V27H396.236L395.986 25.08L396.556 25.49C396.196 26.0433 395.733 26.4667 395.166 26.76C394.599 27.0533 393.953 27.2 393.226 27.2ZM393.566 25.41C394.059 25.41 394.506 25.2867 394.906 25.04C395.313 24.7933 395.633 24.4233 395.866 23.93C396.106 23.4367 396.226 22.82 396.226 22.08C396.226 21.3733 396.106 20.77 395.866 20.27C395.633 19.7633 395.313 19.38 394.906 19.12C394.506 18.8533 394.059 18.72 393.566 18.72C392.993 18.72 392.499 18.8667 392.086 19.16C391.679 19.4467 391.366 19.8433 391.146 20.35C390.933 20.85 390.826 21.4267 390.826 22.08C390.826 22.7067 390.933 23.2733 391.146 23.78C391.366 24.28 391.679 24.6767 392.086 24.97C392.499 25.2633 392.993 25.41 393.566 25.41Z" fill="white"/>
</svg>
